<svg xmlns="http://www.w3.org/2000/svg" width="380" height="380" viewBox="0 0 380 380"><path d="M190 0C85.232 0 0 85.234 0 190s85.232 190 190 190c104.767 0 190-85.232 190-190C380 85.233 294.767 0 190 0zm79.9 316.893l-8.188-14.084a5.322 5.322 0 0 0-4.587-2.636 5.2 5.2 0 0 0-2.648.72 5.254 5.254 0 0 0-2.458 3.22 5.28 5.28 0 0 0 .54 4.018l8.2 14.102a148.923 148.923 0 0 1-60.76 17.43V319.77c0-5.52-4.48-10-10-10-5.522 0-10 4.48-10 10v19.89a148.887 148.887 0 0 1-59.95-17l8.112-14.15a5.258 5.258 0 0 0 .517-4.018 5.257 5.257 0 0 0-2.476-3.205 5.212 5.212 0 0 0-2.624-.704 5.32 5.32 0 0 0-4.603 2.663l-8.102 14.133a151.212 151.212 0 0 1-45.447-43.91l17.188-9.922c4.782-2.76 6.42-8.877 3.66-13.66-2.762-4.78-8.878-6.42-13.66-3.658l-17.212 9.937c-9.056-18.35-14.466-38.8-15.284-60.41l16.33-.05a5.256 5.256 0 0 0 3.737-1.56 5.26 5.26 0 0 0 1.538-3.75 5.303 5.303 0 0 0-5.293-5.276l-16.348.05c.7-21.948 6.136-42.72 15.32-61.326l17.21 9.937a9.996 9.996 0 0 0 13.66-3.66c2.762-4.782 1.123-10.898-3.66-13.66l-17.187-9.922a151.174 151.174 0 0 1 44.67-43.424l8.19 14.084a5.228 5.228 0 0 0 1.934 1.93 5.344 5.344 0 0 0 5.3-.014 5.255 5.255 0 0 0 2.458-3.223 5.256 5.256 0 0 0-.54-4.012l-8.2-14.102A148.905 148.905 0 0 1 180 40.346v19.89c0 5.52 4.48 10 10 10 5.522 0 10-4.48 10-10v-19.89a148.882 148.882 0 0 1 59.948 17l-8.11 14.15a5.3 5.3 0 0 0 4.582 7.927c1.897 0 3.66-1.02 4.6-2.66l8.104-14.136a151.187 151.187 0 0 1 45.45 43.91l-17.19 9.922c-4.782 2.76-6.42 8.876-3.658 13.66a9.998 9.998 0 0 0 13.66 3.66l17.21-9.94c9.06 18.35 14.467 38.8 15.285 60.41l-16.33.05a5.248 5.248 0 0 0-3.736 1.562 5.257 5.257 0 0 0-1.538 3.747 5.315 5.315 0 0 0 2.668 4.582c.794.455 1.7.693 2.623.693h.017l16.333-.05c-.7 21.95-6.136 42.72-15.32 61.327l-17.21-9.938c-4.785-2.762-10.897-1.122-13.66 3.66-2.762 4.782-1.124 10.898 3.66 13.66l17.187 9.922a151.255 151.255 0 0 1-44.674 43.427z"/><path d="M263.906 135.775l-64.142 35.588a20.94 20.94 0 0 0-9.767-2.412 20.93 20.93 0 0 0-9.766 2.413l-64.14-35.588c-6.064-3.366-13.71-1.176-17.078 4.89-3.364 6.064-1.176 13.71 4.89 17.076l65.444 36.312c1.89 9.686 10.412 16.997 20.65 16.997s18.76-7.313 20.65-16.998l65.44-36.31c6.067-3.366 8.255-11.012 4.892-17.078-3.36-6.066-11.005-8.255-17.072-4.89z"/></svg>